<svg width="24" height="25" viewBox="0 0 24 25" fill="none" xmlns="http://www.w3.org/2000/svg">
<path d="M22 3.66675L20.33 5.33675L18.67 3.66675L17 5.33675L15.33 3.66675L13.67 5.33675L12 3.66675L10.33 5.33675L8.67 3.66675L7 5.33675L5.33 3.66675L3.67 5.33675L2 3.66675V19.6667C2 20.7667 2.9 21.6667 4 21.6667H20C21.1 21.6667 22 20.7667 22 19.6667V3.66675ZM11 19.6667H4V13.6667H11V19.6667ZM20 19.6667H13V17.6667H20V19.6667ZM20 15.6667H13V13.6667H20V15.6667ZM20 11.6667H4V8.66675H20V11.6667Z" fill="#989BA2"/>
</svg>