<svg width="24" height="25" viewBox="0 0 24 25" fill="none" xmlns="http://www.w3.org/2000/svg">
<path fill-rule="evenodd" clip-rule="evenodd" d="M20.3175 5.65921C21.2334 5.90416 21.9576 6.62836 22.2026 7.54426C22.6499 9.20566 22.6499 12.6669 22.6499 12.6669C22.6499 12.6669 22.6499 16.1282 22.2026 17.7896C21.9576 18.7055 21.2334 19.4297 20.3175 19.6746C18.6562 20.1219 11.9999 20.1219 11.9999 20.1219C11.9999 20.1219 5.34371 20.1219 3.68232 19.6746C2.76642 19.4297 2.04222 18.7055 1.79727 17.7896C1.34998 16.1282 1.34998 12.6669 1.34998 12.6669C1.34998 12.6669 1.34998 9.20566 1.79727 7.54426C2.04222 6.62836 2.76642 5.90416 3.68232 5.65921C5.34371 5.21191 11.9999 5.21191 11.9999 5.21191C11.9999 5.21191 18.6562 5.21191 20.3175 5.65921ZM9.86996 9.47217V15.8622L15.4079 12.6672L9.86996 9.47217Z" fill="#989BA2"/>
</svg>