<svg width="24" height="25" viewBox="0 0 24 25" fill="none" xmlns="http://www.w3.org/2000/svg">
<path d="M18.3009 7.51446C18.3009 8.15851 17.7856 8.67375 17.1416 8.67375C16.4975 8.67375 15.9823 8.15851 15.9823 7.51446C15.9823 6.87041 16.4975 6.35517 17.1416 6.35517C17.7856 6.35517 18.3009 6.87041 18.3009 7.51446ZM21.6499 12.6669C21.6499 15.286 21.6392 15.6187 21.5962 16.6492C21.5533 17.6797 21.3816 18.3774 21.1454 18.9893C20.8985 19.6226 20.5658 20.1593 20.0291 20.696C19.4924 21.2327 18.9557 21.5655 18.3223 21.8124C17.7105 22.0485 17.002 22.2095 15.9823 22.2632C14.9518 22.3061 14.6191 22.3169 11.9999 22.3169C9.38082 22.3169 9.04807 22.3061 8.01759 22.2632C6.98711 22.2203 6.2894 22.0485 5.67755 21.8124C5.04424 21.5655 4.50753 21.2327 3.97083 20.696C3.43412 20.1593 3.10136 19.6226 2.85448 18.9893C2.61833 18.3774 2.45732 17.669 2.40365 16.6492C2.36071 15.6187 2.34998 15.286 2.34998 12.6669C2.34998 10.0477 2.36071 9.71496 2.40365 8.68448C2.44658 7.654 2.61833 6.95628 2.85448 6.34443C3.10136 5.71112 3.43412 5.17441 3.97083 4.6377C4.50753 4.101 5.04424 3.76824 5.67755 3.52135C6.2894 3.2852 6.99785 3.12419 8.01759 3.07052C9.04807 3.02758 9.38082 3.01685 11.9999 3.01685C14.6191 3.01685 14.9518 3.02758 15.9823 3.07052C17.0128 3.11345 17.7105 3.2852 18.3223 3.52135C18.9557 3.76824 19.4924 4.101 20.0291 4.6377C20.5658 5.17441 20.8985 5.71112 21.1454 6.34443C21.3816 6.95628 21.5426 7.66474 21.5962 8.68448C21.6392 9.71496 21.6499 10.0477 21.6499 12.6669ZM19.911 12.6669C19.911 10.0907 19.911 9.77937 19.8573 8.75962C19.8144 7.81501 19.6534 7.31051 19.5246 6.96702C19.3528 6.51618 19.1381 6.19416 18.8054 5.8614C18.4726 5.52864 18.1506 5.31396 17.6998 5.14221C17.3563 5.0134 16.8518 4.85239 15.9072 4.80945C14.8874 4.76651 14.5869 4.75578 11.9999 4.75578C9.41302 4.75578 9.11247 4.75578 8.09273 4.80945C7.14813 4.85239 6.64362 5.0134 6.30013 5.14221C5.8493 5.31396 5.52727 5.52864 5.19452 5.8614C4.86176 6.19416 4.64708 6.51618 4.47533 6.96702C4.34652 7.31051 4.18551 7.81501 4.14257 8.75962C4.09964 9.77937 4.0889 10.0799 4.0889 12.6669C4.0889 15.2538 4.0889 15.5543 4.14257 16.5741C4.18551 17.5187 4.34652 18.0232 4.47533 18.3667C4.64708 18.8175 4.86176 19.1396 5.19452 19.4723C5.52727 19.8051 5.8493 20.0198 6.30013 20.1915C6.64362 20.3203 7.14813 20.4813 8.09273 20.5243C9.11247 20.5672 9.41302 20.5779 11.9999 20.5779C14.5869 20.5779 14.8874 20.5779 15.9072 20.5243C16.8518 20.4813 17.3563 20.3203 17.6998 20.1915C18.1506 20.0198 18.4726 19.8051 18.8054 19.4723C19.1381 19.1396 19.3528 18.8175 19.5246 18.3667C19.6534 18.0232 19.8144 17.5187 19.8573 16.5741C19.9003 15.5543 19.911 15.2538 19.911 12.6669ZM16.9484 12.6669C16.9484 15.4041 14.7264 17.626 11.9892 17.626C9.25201 17.626 7.03005 15.4041 7.03005 12.6669C7.03005 9.92964 9.25201 7.70767 11.9892 7.70767C14.7264 7.70767 16.9484 9.92964 16.9484 12.6669ZM15.2094 12.6669C15.2094 10.885 13.7711 9.44661 11.9892 9.44661C10.2073 9.44661 8.76898 10.885 8.76898 12.6669C8.76898 14.4487 10.2073 15.8871 11.9892 15.8871C13.7711 15.8871 15.2094 14.4487 15.2094 12.6669Z" fill="#989BA2"/>
</svg>