<svg width="24" height="25" viewBox="0 0 24 25" fill="none" xmlns="http://www.w3.org/2000/svg">
<path fill-rule="evenodd" clip-rule="evenodd" d="M12.0003 3.82104C6.79576 3.82104 2.57178 7.10219 2.57178 11.1376C2.57178 13.655 4.20291 15.8519 6.69205 17.1908L5.64548 21.0282C5.62573 21.1045 5.6298 21.1851 5.65713 21.259C5.68446 21.333 5.73375 21.3968 5.79838 21.4419C5.86302 21.4871 5.93992 21.5114 6.01876 21.5116C6.0976 21.5118 6.17461 21.4879 6.23948 21.443L10.8217 18.3976C11.2083 18.3976 11.6043 18.4636 12.0003 18.4636C17.2049 18.4636 21.4289 15.1825 21.4289 11.1376C21.4289 7.09276 17.2049 3.82104 12.0003 3.82104Z" fill="#989BA2"/>
</svg>
