<svg width="24" height="24" viewBox="0 0 24 24" fill="none" xmlns="http://www.w3.org/2000/svg">
<path d="M14.2187 3.12669C14.7009 3.24725 14.9941 3.73589 14.8736 4.2181L10.8736 20.2181C10.753 20.7003 10.2644 20.9935 9.78217 20.873C9.29996 20.7524 9.00678 20.2638 9.12733 19.7815L13.1273 3.78154C13.2479 3.29932 13.7365 3.00614 14.2187 3.12669Z" fill="#37383C" fill-opacity="0.61"/>
<path d="M16.364 6.36343C16.0126 6.7149 16.0126 7.28475 16.364 7.63622L20.7276 11.9998L16.364 16.3634C16.0126 16.7149 16.0126 17.2847 16.364 17.6362C16.7155 17.9877 17.2854 17.9877 17.6368 17.6362L22.6368 12.6362C22.9883 12.2847 22.9883 11.7149 22.6368 11.3634L17.6368 6.36343C17.2854 6.01195 16.7155 6.01195 16.364 6.36343Z" fill="#37383C" fill-opacity="0.61"/>
<path d="M7.63696 7.63622C7.98843 7.28475 7.98843 6.7149 7.63696 6.36343C7.28549 6.01195 6.71564 6.01195 6.36417 6.36343L1.36419 11.3634C1.01272 11.7149 1.01272 12.2847 1.36419 12.6362L6.36417 17.6362C6.71564 17.9877 7.28549 17.9877 7.63696 17.6362C7.98843 17.2847 7.98843 16.7149 7.63696 16.3634L3.27337 11.9998L7.63696 7.63622Z" fill="#37383C" fill-opacity="0.61"/>
</svg>
