<svg width="24" height="24" viewBox="0 0 24 24" fill="none" xmlns="http://www.w3.org/2000/svg">
<path fill-rule="evenodd" clip-rule="evenodd" d="M6.34947 8.74903C6.34947 7.42354 7.42398 6.34903 8.74946 6.34903C10.0749 6.34903 11.1495 7.42354 11.1495 8.74903C11.1495 10.0745 10.0749 11.149 8.74946 11.149C7.42398 11.149 6.34947 10.0745 6.34947 8.74903ZM8.74946 8.14903C8.41809 8.14903 8.14946 8.41766 8.14946 8.74903C8.14946 9.0804 8.41809 9.34903 8.74946 9.34903C9.08083 9.34903 9.34946 9.0804 9.34946 8.74903C9.34946 8.41766 9.08083 8.14903 8.74946 8.14903Z" fill="#37383C" fill-opacity="0.61"/>
<path fill-rule="evenodd" clip-rule="evenodd" d="M8.26189 2.59961C7.45387 2.5996 6.79298 2.59959 6.25591 2.64347C5.7 2.68889 5.19793 2.78578 4.72904 3.02469C3.99521 3.39859 3.39859 3.99522 3.02468 4.72905C2.78577 5.19794 2.68889 5.70002 2.64347 6.25593C2.59959 6.793 2.5996 7.45385 2.59961 8.26189V15.7373C2.5996 16.5454 2.59959 17.2062 2.64347 17.7433C2.68889 18.2992 2.78577 18.8013 3.02468 19.2702C3.39859 20.004 3.99521 20.6006 4.72904 20.9745C5.19793 21.2135 5.7 21.3103 6.25591 21.3558C6.79299 21.3996 7.45384 21.3996 8.26189 21.3996H15.7373C16.5453 21.3996 17.2062 21.3996 17.7432 21.3558C18.2991 21.3103 18.8012 21.2135 19.2701 20.9745C20.0039 20.6006 20.6006 20.004 20.9745 19.2702C21.2134 18.8013 21.3103 18.2992 21.3557 17.7433C21.3996 17.2062 21.3996 16.5454 21.3995 15.7373V8.26191C21.3996 7.45386 21.3996 6.79301 21.3557 6.25593C21.3103 5.70002 21.2134 5.19794 20.9745 4.72905C20.6006 3.99522 20.0039 3.39859 19.2701 3.02469C18.8012 2.78578 18.2991 2.68889 17.7432 2.64347C17.2062 2.59959 16.5454 2.5996 15.7373 2.59961H8.26189ZM5.54622 4.6285C5.71907 4.54043 5.95789 4.47382 6.40249 4.4375C6.8576 4.40031 7.44466 4.39961 8.29959 4.39961H15.6996C16.5545 4.39961 17.1416 4.40031 17.5967 4.4375C18.0413 4.47382 18.2801 4.54043 18.4529 4.6285C18.8481 4.82983 19.1693 5.15109 19.3707 5.54623C19.4587 5.71908 19.5253 5.95791 19.5617 6.40251C19.5989 6.85761 19.5996 7.44468 19.5996 8.29961V10.8275L19.3735 10.6014C18.9989 10.2267 18.6798 9.90768 18.3965 9.66715C18.0988 9.41446 17.7819 9.19599 17.3956 9.07046C16.8131 8.88122 16.1857 8.88122 15.6033 9.07046C15.2169 9.19599 14.9 9.41446 14.6023 9.66715C14.319 9.90767 14 10.2267 13.6254 10.6014L5.13281 19.0939C4.92563 18.9163 4.75382 18.699 4.62849 18.453C4.54042 18.2802 4.47381 18.0413 4.43749 17.5967C4.4003 17.1416 4.3996 16.5545 4.3996 15.6996V8.29961C4.3996 7.44468 4.4003 6.85761 4.43749 6.40251C4.47381 5.95791 4.54042 5.71908 4.62849 5.54623C4.82982 5.15109 5.15108 4.82983 5.54622 4.6285ZM7.17809 19.5943C7.49378 19.5994 7.86152 19.5996 8.29959 19.5996H15.6996C16.5545 19.5996 17.1416 19.5989 17.5967 19.5617C18.0413 19.5254 18.2801 19.4588 18.4529 19.3707C18.8481 19.1694 19.1693 18.8481 19.3707 18.453C19.4587 18.2802 19.5253 18.0413 19.5617 17.5967C19.5989 17.1416 19.5996 16.5545 19.5996 15.6996V13.373L18.1257 11.8992C17.7192 11.4927 17.4521 11.2266 17.2316 11.0394C17.019 10.8589 16.9097 10.8052 16.8393 10.7824C16.6184 10.7106 16.3804 10.7106 16.1595 10.7824C16.0892 10.8052 15.9798 10.8589 15.7672 11.0394C15.5467 11.2266 15.2796 11.4927 14.8731 11.8992L7.17809 19.5943Z" fill="#37383C" fill-opacity="0.61"/>
</svg>
