<svg width="134" height="28" viewBox="0 0 134 28" fill="none" xmlns="http://www.w3.org/2000/svg">
<g id="tbdcamsig 1">
<g id="Signature">
<g id="Symbol">
<path id="Vector" d="M25.0653 8.41121C24.9911 13.2716 23.0987 18.1118 19.3881 21.8246C16.3121 24.9006 12.462 26.73 8.46118 27.3038C11.5124 23.5527 13.1753 18.8948 13.1753 13.9984C13.1753 13.5799 13.1618 13.1591 13.1371 12.7451C16.6069 9.91433 20.8282 8.47196 25.0676 8.41121H25.0653Z" fill="#448181"/>
<path id="Vector_2" d="M11.4449 13.9989C11.4449 14.0979 11.4449 14.1969 11.4404 14.2959C11.3617 19.4286 9.29823 24.0752 5.97471 27.5L5.97021 27.4955C2.58367 24.0055 0.5 19.2486 0.5 13.9989C0.5 8.74919 2.58367 3.99229 5.97471 0.5C9.36349 3.99229 11.4449 8.75369 11.4449 13.9989Z" fill="#448181"/>
</g>
<g id="Logotype">
<g id="Group">
<path id="Vector_3" d="M37.1015 5.0148H34.2528V2.93563H42.5583V5.0148H39.723V12.2086H37.0993V5.0148H37.1015Z" fill="#448181"/>
<path id="Vector_4" d="M45.1595 11.7699C44.4169 11.3559 43.8341 10.7799 43.4111 10.0486C42.9881 9.31499 42.7765 8.48918 42.7765 7.5711C42.7765 6.65302 42.9881 5.8272 43.4111 5.09364C43.8341 4.36008 44.4169 3.78628 45.1595 3.37225C45.902 2.95821 46.7391 2.74895 47.6707 2.74895C48.6023 2.74895 49.4393 2.95596 50.1819 3.37225C50.9245 3.78853 51.5073 4.36233 51.9303 5.09364C52.3533 5.8272 52.5649 6.65302 52.5649 7.5711C52.5649 8.48918 52.3533 9.31499 51.9303 10.0486C51.5073 10.7821 50.9245 11.3559 50.1819 11.7699C49.4393 12.184 48.6023 12.3933 47.6707 12.3933C46.7391 12.3933 45.902 12.1862 45.1595 11.7699ZM48.879 9.88879C49.2391 9.66827 49.5248 9.35775 49.7341 8.95496C49.9434 8.55218 50.0491 8.09089 50.0491 7.5711C50.0491 7.05131 49.9434 6.58777 49.7341 6.18723C49.5248 5.78445 49.2391 5.47392 48.879 5.25341C48.519 5.03289 48.1162 4.92263 47.6707 4.92263C47.2252 4.92263 46.8224 5.03289 46.4623 5.25341C46.1023 5.47392 45.8165 5.78445 45.6073 6.18723C45.398 6.59002 45.2922 7.05131 45.2922 7.5711C45.2922 8.09089 45.398 8.55443 45.6073 8.95496C45.8165 9.35775 46.1023 9.66827 46.4623 9.88879C46.8224 10.1093 47.2252 10.2196 47.6707 10.2196C48.1162 10.2196 48.519 10.1093 48.879 9.88879Z" fill="#448181"/>
<path id="Vector_5" d="M64.1646 8.23946C64.4503 8.63324 64.5921 9.10803 64.5921 9.66383C64.5921 10.4761 64.2816 11.1039 63.6605 11.545C63.0395 11.986 62.1416 12.2065 60.967 12.2065H56.2101V2.93352H60.715C61.8401 2.93352 62.6952 3.15179 63.2825 3.58832C63.8698 4.02486 64.1646 4.61441 64.1646 5.35697C64.1646 5.79801 64.061 6.19404 63.8563 6.54282C63.6515 6.8916 63.359 7.16837 62.981 7.37089C63.485 7.5554 63.8788 7.84568 64.1646 8.23946ZM58.6786 4.82818V6.61707H60.391C61.2303 6.61707 61.6488 6.3178 61.6488 5.717C61.6488 5.1162 61.2303 4.83043 60.391 4.83043H58.6786V4.82818ZM62.0764 9.37355C62.0764 8.74575 61.6398 8.43298 60.7668 8.43298H58.6786V10.3141H60.7668C61.6398 10.3141 62.0764 10.0014 62.0764 9.37355Z" fill="#448181"/>
<path id="Vector_6" d="M72.4318 10.1814V12.2088H65.3594V2.93352H72.2675V4.96094H67.8256V6.52482H71.7387V8.48473H67.8256V10.1814H72.4318Z" fill="#448181"/>
<path id="Vector_7" d="M76.1535 2.93352H80.3186C81.284 2.93352 82.139 3.12253 82.8861 3.50282C83.6332 3.8831 84.2115 4.42089 84.6232 5.11845C85.035 5.81601 85.2398 6.63283 85.2398 7.5689C85.2398 8.50498 85.035 9.3218 84.6232 10.0194C84.2115 10.7169 83.6332 11.257 82.8861 11.635C82.139 12.0153 81.284 12.2043 80.3186 12.2043H76.1535V2.93352ZM80.2174 10.1139C80.9734 10.1139 81.5787 9.88885 82.0355 9.43881C82.4923 8.98877 82.7218 8.36547 82.7218 7.57115C82.7218 6.77684 82.4923 6.15354 82.0355 5.7035C81.5787 5.25346 80.9712 5.02844 80.2174 5.02844H78.6445V10.1161H80.2174V10.1139Z" fill="#448181"/>
<path id="Vector_8" d="M88.4126 11.7699C87.67 11.3559 87.0872 10.7799 86.6642 10.0486C86.2412 9.31499 86.0296 8.48918 86.0296 7.5711C86.0296 6.65302 86.2412 5.8272 86.6642 5.09364C87.0872 4.36008 87.67 3.78628 88.4126 3.37225C89.1551 2.95821 89.9922 2.74895 90.9238 2.74895C91.8554 2.74895 92.6924 2.95596 93.435 3.37225C94.1776 3.78853 94.7604 4.36233 95.1834 5.09364C95.6064 5.8272 95.8179 6.65302 95.8179 7.5711C95.8179 8.48918 95.6064 9.31499 95.1834 10.0486C94.7604 10.7821 94.1776 11.3559 93.435 11.7699C92.6924 12.184 91.8554 12.3933 90.9238 12.3933C89.9922 12.3933 89.1551 12.1862 88.4126 11.7699ZM92.1321 9.88879C92.4922 9.66827 92.7779 9.35775 92.9872 8.95496C93.1965 8.55218 93.3022 8.09089 93.3022 7.5711C93.3022 7.05131 93.1965 6.58777 92.9872 6.18723C92.7779 5.78445 92.4922 5.47392 92.1321 5.25341C91.7721 5.03289 91.3693 4.92263 90.9238 4.92263C90.4783 4.92263 90.0755 5.03289 89.7154 5.25341C89.3554 5.47392 89.0696 5.78445 88.8604 6.18723C88.6511 6.59002 88.5453 7.05131 88.5453 7.5711C88.5453 8.09089 88.6511 8.55443 88.8604 8.95496C89.0696 9.35775 89.3554 9.66827 89.7154 9.88879C90.0755 10.1093 90.4783 10.2196 90.9238 10.2196C91.3693 10.2196 91.7699 10.1093 92.1321 9.88879Z" fill="#448181"/>
<path id="Vector_9" d="M98.9682 11.7767C98.2346 11.3672 97.6563 10.7934 97.2378 10.0621C96.8193 9.3285 96.6078 8.49818 96.6078 7.5711C96.6078 6.64402 96.817 5.8137 97.2378 5.08014C97.6563 4.34658 98.2346 3.77503 98.9682 3.3655C99.7018 2.95371 100.53 2.74895 101.452 2.74895C102.258 2.74895 102.983 2.89971 103.631 3.19898C104.276 3.49826 104.814 3.93255 105.242 4.49734L103.655 6.00722C103.084 5.28266 102.393 4.92038 101.578 4.92038C101.099 4.92038 100.674 5.03064 100.3 5.25116C99.9268 5.47167 99.6365 5.7822 99.4317 6.18498C99.227 6.58777 99.1235 7.04906 99.1235 7.56885C99.1235 8.08864 99.227 8.55218 99.4317 8.95271C99.6365 9.3555 99.9268 9.66602 100.3 9.88654C100.674 10.1071 101.099 10.2173 101.578 10.2173C102.393 10.2173 103.084 9.85504 103.655 9.13048L105.242 10.6404C104.814 11.2052 104.276 11.6394 103.631 11.9387C102.985 12.238 102.258 12.3888 101.452 12.3888C100.53 12.3888 99.7018 12.184 98.9682 11.7722V11.7767Z" fill="#448181"/>
<path id="Vector_10" d="M108.901 5.0148H106.052V2.93563H114.357V5.0148H111.522V12.2086H108.898V5.0148H108.901Z" fill="#448181"/>
<path id="Vector_11" d="M116.958 11.7699C116.216 11.3559 115.633 10.7799 115.21 10.0486C114.787 9.31499 114.576 8.48918 114.576 7.5711C114.576 6.65302 114.787 5.8272 115.21 5.09364C115.633 4.36008 116.216 3.78628 116.958 3.37225C117.701 2.95821 118.538 2.74895 119.47 2.74895C120.401 2.74895 121.238 2.95596 121.981 3.37225C122.723 3.78853 123.306 4.36233 123.729 5.09364C124.152 5.8272 124.364 6.65302 124.364 7.5711C124.364 8.48918 124.152 9.31499 123.729 10.0486C123.306 10.7821 122.723 11.3559 121.981 11.7699C121.238 12.184 120.401 12.3933 119.47 12.3933C118.538 12.3933 117.701 12.1862 116.958 11.7699ZM120.676 9.88879C121.036 9.66827 121.322 9.35775 121.531 8.95496C121.74 8.55218 121.846 8.09089 121.846 7.5711C121.846 7.05131 121.74 6.58777 121.531 6.18723C121.322 5.78445 121.036 5.47392 120.676 5.25341C120.316 5.03289 119.913 4.92263 119.467 4.92263C119.022 4.92263 118.619 5.03289 118.259 5.25341C117.899 5.47392 117.613 5.78445 117.404 6.18723C117.195 6.59002 117.089 7.05131 117.089 7.5711C117.089 8.09089 117.195 8.55443 117.404 8.95496C117.613 9.35775 117.899 9.66827 118.259 9.88879C118.619 10.1093 119.022 10.2196 119.467 10.2196C119.913 10.2196 120.313 10.1093 120.676 9.88879Z" fill="#448181"/>
<path id="Vector_12" d="M128.995 9.74259H127.636V12.2065H125.145V2.93352H129.172C129.969 2.93352 130.662 3.07303 131.249 3.3498C131.837 3.62883 132.289 4.02486 132.608 4.5424C132.928 5.05994 133.088 5.66525 133.088 6.3628C133.088 7.06036 132.939 7.61841 132.64 8.11795C132.343 8.61749 131.915 9.00677 131.362 9.2903L133.261 12.2043H130.592L128.995 9.74033V9.74259ZM130.176 5.35922C129.915 5.1207 129.53 5.00144 129.017 5.00144H127.633V7.71742H129.017C129.528 7.71742 129.915 7.60041 130.176 7.36639C130.437 7.13237 130.565 6.79934 130.565 6.3673C130.565 5.93527 130.435 5.59999 130.176 5.36147V5.35922Z" fill="#448181"/>
</g>
<g id="Group_2">
<path id="Vector_13" d="M36.9328 24.6362C36.1992 24.2267 35.6209 23.6529 35.2024 22.9216C34.7816 22.188 34.5723 21.3577 34.5723 20.4306C34.5723 19.5036 34.7816 18.6732 35.2024 17.9397C35.6209 17.2061 36.1992 16.6346 36.9328 16.225C37.6663 15.8132 38.4944 15.6085 39.4192 15.6085C40.2248 15.6085 40.9494 15.7592 41.5974 16.0585C42.2432 16.3578 42.781 16.7921 43.2085 17.3569L41.6222 18.8668C41.0506 18.1422 40.3598 17.7799 39.5452 17.7799C39.066 17.7799 38.6407 17.8902 38.2671 18.1107C37.8936 18.3312 37.6033 18.6417 37.3986 19.0445C37.1938 19.4473 37.0903 19.9086 37.0903 20.4284C37.0903 20.9482 37.1938 21.4117 37.3986 21.8122C37.6033 22.215 37.8936 22.5256 38.2671 22.7461C38.6407 22.9666 39.066 23.0769 39.5452 23.0769C40.3598 23.0769 41.0506 22.7146 41.6222 21.99L43.2085 23.4999C42.781 24.0647 42.2432 24.4967 41.5974 24.7983C40.9516 25.0975 40.2248 25.2483 39.4192 25.2483C38.4967 25.2483 37.6686 25.0435 36.9328 24.6317V24.6362Z" fill="#448181"/>
<path id="Vector_14" d="M50.2179 23.2658H46.4938L45.8008 25.0682H43.258L47.1464 15.7952H49.6013L53.5031 25.0682H50.9109L50.2179 23.2658ZM49.4866 21.3306L48.3547 18.3626L47.2229 21.3306H49.4888H49.4866Z" fill="#448181"/>
<path id="Vector_15" d="M62.1596 25.0682L62.1349 20.1538L59.8689 24.1546H58.7619L56.5094 20.2865V25.0682H54.2075V15.7952H56.2596L59.3559 21.1461L62.3757 15.7952H64.4278L64.4526 25.0682H62.1619H62.1596Z" fill="#448181"/>
<path id="Vector_16" d="M71.5204 16.2105C72.1077 16.4896 72.56 16.8856 72.8795 17.4031C73.1991 17.9207 73.3588 18.5282 73.3588 19.2235C73.3588 19.9188 73.1991 20.5264 72.8795 21.0394C72.56 21.5525 72.1077 21.9463 71.5204 22.2253C70.9331 22.5043 70.2401 22.6416 69.4435 22.6416H67.9089V25.065H65.4179V15.792H69.4458C70.2423 15.792 70.9354 15.9315 71.5227 16.2083L71.5204 16.2105ZM70.4516 20.2249C70.7104 19.9908 70.8409 19.6578 70.8409 19.2258C70.8409 18.7937 70.7104 18.4585 70.4516 18.2199C70.1906 17.9814 69.8058 17.8622 69.2927 17.8622H67.9089V20.5781H69.2927C69.8035 20.5781 70.1906 20.4611 70.4516 20.2271V20.2249Z" fill="#448181"/>
<path id="Vector_17" d="M75.1747 24.1276C74.4479 23.3783 74.0856 22.3117 74.0856 20.9346V15.7952H76.5766V20.8558C76.5766 22.3387 77.1346 23.0813 78.2507 23.0813C79.3668 23.0813 79.9113 22.3387 79.9113 20.8558V15.7952H82.3663V20.9346C82.3663 22.3117 82.004 23.376 81.2772 24.1276C80.5504 24.8792 79.5333 25.2527 78.226 25.2527C76.9186 25.2527 75.8993 24.8769 75.1747 24.1276Z" fill="#448181"/>
<path id="Vector_18" d="M84.8078 24.9731C84.1372 24.7886 83.5904 24.5411 83.1719 24.2306L83.9909 22.2954C84.3847 22.5699 84.8415 22.7904 85.3636 22.957C85.8834 23.1257 86.3964 23.209 86.8982 23.209C87.8545 23.209 88.3338 22.957 88.3338 22.4529C88.3338 22.1874 88.1965 21.9916 87.9243 21.8634C87.652 21.7351 87.2132 21.6001 86.6102 21.4583C85.9464 21.3076 85.3928 21.1478 84.9495 20.9745C84.504 20.8013 84.1237 20.5268 83.8042 20.1465C83.4847 19.7662 83.3249 19.2554 83.3249 18.6096C83.3249 18.0448 83.4712 17.534 83.7659 17.0795C84.0585 16.6249 84.4972 16.2649 85.08 15.9994C85.6628 15.7339 86.3784 15.6011 87.2267 15.6011C87.805 15.6011 88.3766 15.6686 88.9391 15.8059C89.5017 15.9431 89.9967 16.1434 90.4242 16.4089L89.6569 18.3553C88.8176 17.8783 88.003 17.6398 87.2155 17.6398C86.7204 17.6398 86.3604 17.7163 86.1331 17.8715C85.9059 18.0268 85.7933 18.2271 85.7933 18.4746C85.7933 18.7221 85.9284 18.9066 86.1961 19.0304C86.4639 19.1541 86.8959 19.2824 87.4922 19.4152C88.1628 19.5659 88.7186 19.7257 89.1596 19.899C89.6007 20.0722 89.9809 20.3445 90.305 20.7203C90.629 21.0961 90.7888 21.6068 90.7888 22.2504C90.7888 22.8062 90.6425 23.3102 90.3477 23.7603C90.053 24.2103 89.6142 24.5703 89.0269 24.8404C88.4396 25.1104 87.7263 25.2454 86.8869 25.2454C86.1736 25.2454 85.4806 25.1531 84.81 24.9664L84.8078 24.9731Z" fill="#448181"/>
<path id="Vector_19" d="M91.8059 24.7618C91.5291 24.4782 91.3896 24.1227 91.3896 23.6884C91.3896 23.2541 91.5268 22.8896 91.7991 22.6151C92.0714 22.3406 92.4134 22.2056 92.8252 22.2056C93.237 22.2056 93.588 22.3428 93.858 22.6151C94.1258 22.8896 94.2608 23.2474 94.2608 23.6884C94.2608 24.1295 94.1235 24.4782 93.8513 24.7618C93.579 25.0453 93.237 25.1848 92.8252 25.1848C92.4134 25.1848 92.0826 25.043 91.8059 24.7618Z" fill="#448181"/>
</g>
</g>
</g>
</g>
</svg>
